<?xml version="1.0" encoding="utf-8"?>
<!-- Generator: Adobe Illustrator 27.0.0, SVG Export Plug-In . SVG Version: 6.00 Build 0)  -->
<svg version="1.1" xmlns="http://www.w3.org/2000/svg" xmlns:xlink="http://www.w3.org/1999/xlink" x="0px" y="0px"
	 viewBox="0 0 1000 1000" style="enable-background:new 0 0 1000 1000;" xml:space="preserve">
<style type="text/css">
	.st0{display:none;}
	.st1{display:inline;fill:#333333;stroke:#000000;stroke-miterlimit:10;}
	.st2{fill:#FFE189;}
</style>
<g id="Layer_1">
</g>
<g id="Layer_2" class="st0">
	<rect x="0" class="st1" width="1000" height="1000"/>
</g>
<g id="Layer_3">
	<g>
		<path class="st2" d="M374,519.5c-3.5,3.98-6.7,7.9-10.2,11.53c-7.33,7.6-15.56,13.73-26.31,15.71c-8.83,1.63-17-0.18-23.67-5.86
			c-5.24-4.45-9.42-10.15-14.02-15.35c-0.85-0.96-1.45-2.14-2.29-3.43c-10.4,15.5-18.2,31.81-21.65,50.07
			c-9.71-5.2-12.55-12.25-8.87-22.13c3.6-9.66,9.64-17.87,15.86-25.94c2.57-3.33,5.38-6.47,7.91-9.83c0.58-0.77,0.91-2.27,0.56-3.1
			c-3.26-7.72-6.7-15.36-10.25-23.39c-0.54,0.91-1.14,1.84-1.65,2.81c-7.16,13.64-14.64,27.13-24.84,38.74
			c-5.2,5.92-11.36,11.11-17.57,16.01c-4.27,3.36-9.57,4.72-15.24,4.7c-7.08-0.02-11.71-3.48-14.78-9.4
			c-3.55-6.83-4.48-14.32-4.73-21.86c-0.23-6.96-0.05-13.93-0.05-21.09c-0.47,0.9-0.99,1.85-1.46,2.83
			c-7.19,14.91-15.3,29.29-27.05,41.12c-4.45,4.49-9.61,8.65-15.16,11.59c-9.71,5.13-20.08,1.46-25.66-8.04
			c-4.27-7.27-4.71-15.27-3.35-23.19c3.21-18.58,7.05-37.05,10.39-55.61c0.6-3.35,0.09-6.91,0.09-10.71c4.23,0,9.15-0.29,14.01,0.1
			c3.6,0.29,5.56,3.77,4.66,7.82c-2.35,10.54-4.95,21.02-7.31,31.56c-2.36,10.56-4.94,21.11-4.41,32.08
			c0.04,0.88,0.04,1.78,0.19,2.65c1.31,7.46,6.57,10.53,13.34,7.1c3.86-1.95,7.47-4.8,10.52-7.91c9.38-9.57,16.05-21.09,22.55-32.69
			c5.95-10.61,11.77-21.32,14.84-33.18c0.97-3.74,0.99-7.73,1.54-12.36c3.65-1.35,8.48-2.32,13.48-1.72
			c4.11,0.49,5.61,2.9,4.78,7.01c-2.58,12.64-5.48,25.22-7.66,37.93c-1.66,9.71-2.01,19.58-0.45,29.41
			c0.02,0.11,0.02,0.22,0.04,0.33c1.73,8.67,6.97,11.72,14.64,7.42c5.19-2.92,10.04-6.95,14.03-11.4
			c11.7-13.02,19.93-28.37,27.87-43.84c0.49-0.96,0.43-2.34,0.26-3.47c-0.38-2.62-1.01-5.2-1.49-7.81c-0.79-4.33,0.63-7.82,4.6-9.68
			c3.84-1.8,7.95-3.05,12.36-4.69c-0.83,18.17,6.05,33.48,12.87,48.9c10.41-9.34,21.32-31.05,22.73-45.88
			c3.92,0.39,7.97,0.39,11.8,1.32c3.04,0.73,3.9,3.69,2.94,6.48c-1.47,4.25-2.72,8.85-5.3,12.39
			c-7.61,10.44-15.78,20.48-23.85,30.59c-3.96,4.96-4.52,3.07-0.5,8.63c3.02,4.18,6.47,8.19,10.35,11.57
			c6.88,5.99,15,6.89,23.27,3.23c3.99-1.77,7.94-4.1,11.16-7.01c4.74-4.27,8.87-9.24,13.17-14c2.86-3.16,4.38-6.9,5.44-11.12
			c3.8-15.2,11.98-27.72,24.58-37.16c9.41-7.04,20.13-9.98,31.8-9.25c16.21,1.01,25.32,15.21,20.14,31.2
			c-2.63,8.13-8.13,14.11-14.75,19.15c-12.46,9.48-26.6,14.18-42.19,14.68c-0.76,0.02-1.51,0-2.23,0
			c-1.38,11.09,2.74,26.33,18.26,26.86c5.69,0.19,11.69-1.01,17.13-2.82c11.88-3.95,21.43-11.8,30.46-20.22
			c13.64-12.71,24.54-27.58,33.99-43.57c0.49-0.83,1-1.66,1.55-2.57c1.42,0.71,2.67,1.33,4.48,2.24
			c0.81-10.45,5.82-20.17,2.11-31.29c4.55-1.33,9.44-3.03,14.47-4.15c4.24-0.94,7.44,2.65,6.68,7.16
			c-1.51,8.98-3.08,17.94-4.69,26.9c-3.43,19.1-6.96,38.17-10.3,57.29c-0.56,3.22-0.62,6.6-0.41,9.87c0.24,3.68,2.76,5.72,6.27,6.25
			c15.65,2.35,30.71,0.25,44.74-7.13c31.65-16.65,43.77-49.88,36.28-79.04c-5.31-20.66-20.03-32.06-40.45-35.33
			c-34.66-5.54-60.56,8.97-79.91,37.04c-0.61,0.88-1.22,1.75-2.12,3.04c-2.92-7.01-2.85-13.47,0-19.92
			c2.48-5.62,6.56-9.98,11.35-13.65c14.5-11.1,31.03-17.2,49.07-19.24c14.95-1.69,29.88-1.52,44.3,3.35
			c20.73,7.01,34.47,20.62,37.57,42.9c2.97,21.37-2.67,40.79-15.46,58.09c-15.13,20.48-35.89,32.74-59.72,40.39
			c-10.27,3.3-20.81,5.11-31.6,5.26c-2.64,0.04-5.35-0.15-7.91-0.73c-8.29-1.88-13.75-6.74-12.17-18.36
			c1.96-14.42,4.67-28.75,7.08-43.11c0.62-3.69,1.32-7.37,1.58-11.31c-0.6,0.91-1.22,1.81-1.79,2.74
			c-13.38,21.86-30.28,40.32-52.33,53.69c-10.34,6.27-21.42,10.3-33.74,10.64c-18.98,0.53-29.54-11.94-32.93-26.38
			C374.96,525.98,374.58,522.9,374,519.5z M393.97,504.51c18.33,0.02,35.5-11.56,40.78-23.1c2.31-5.04,3.32-10.27,2.02-15.79
			c-1.05-4.47-3.76-6.83-8.37-7.05c-5.45-0.26-10.27,1.59-14.32,5.07C401.66,474.32,396.35,488.53,393.97,504.51z"/>
		<path class="st2" d="M642.85,466.35c2.72-0.58,6.22-1.55,9.79-2.04c6.68-0.92,9.56,1.33,9.27,8.04
			c-0.32,7.37-1.24,14.74-2.33,22.04c-1.69,11.33-4.37,22.55-5.48,33.93c-1.16,11.84,5.85,16.14,16.39,10.57
			c4.06-2.15,7.91-4.95,11.3-8.05c17.34-15.87,30.29-35.13,41.77-55.44c0.87-1.54,0.45-4.09,0-6.02c-0.59-2.55-1.81-4.94-2.9-7.77
			c3.55-1.21,7.21-2.69,11-3.69c6.06-1.6,9.92,1.14,9.97,7.43c0.05,6.95-0.42,13.92-0.93,20.86c-0.72,9.91-1.68,19.8-1.85,29.93
			c0.53-1.13,1.06-2.27,1.58-3.4c7.36-15.99,15-31.84,25.92-45.78c3.45-4.41,7.45-8.51,11.76-12.09c2.88-2.39,6.57-4.12,10.19-5.23
			c7.07-2.18,13.15,0.45,17.06,6.78c3.39,5.48,5.02,11.63,5.36,17.93c0.72,13.37,0.84,26.76,1.48,40.13c0.25,5.16,0.81,10.38,2,15.4
			c1.49,6.31,5.85,8.16,11.23,4.62c3.8-2.5,7.38-5.78,10.07-9.44c5.11-6.92,9.6-14.32,14.14-21.64c1-1.61,1.25-3.73,1.68-5.65
			c3.47-15.58,11.34-28.46,23.78-38.43c9.65-7.73,20.8-11.04,33.1-10.33c15.97,0.93,25.09,14.6,20.46,30.45
			c-2.23,7.64-7.05,13.46-13.05,18.38c-12.77,10.46-27.53,15.64-43.97,16.22c-0.87,0.03-1.73,0.08-2.56,0.13
			c-2.84,15.51,7.98,28.4,22.78,26.87c4.88-0.5,9.81-1.76,14.4-3.51c10.92-4.17,19.91-11.38,28.4-19.24
			c13.77-12.74,24.78-27.66,34.28-43.74c0.45-0.76,0.89-1.52,1.36-2.26c0.11-0.17,0.31-0.28,0.65-0.57c2.29,1.38,4.63,2.79,7,4.22
			c-0.08,0.45-0.06,0.78-0.19,1.05c-12.82,25.85-30.41,47.69-54.31,64.14c-10.02,6.9-20.86,11.81-33.04,13.79
			c-20.13,3.27-36.12-7.75-39.72-27.79c-0.25-1.38-0.54-2.74-0.89-4.49c-3.09,4.16-5.68,8.3-8.93,11.84
			c-4.62,5.02-9.53,9.83-14.7,14.29c-3.48,2.99-7.91,4.52-12.62,4.31c-6.74-0.31-11.35-3.88-14.04-9.98
			c-3.27-7.42-4.15-15.36-4.54-23.3c-0.54-10.72-0.43-21.47-0.81-32.2c-0.17-4.74-0.55-9.51-1.39-14.17
			c-1.44-8-6.83-10.01-12.69-4.43c-4.44,4.23-8.7,8.99-11.78,14.25c-8.83,15.04-17.12,30.4-25.41,45.75
			c-2.56,4.74-4.74,9.74-6.5,14.83c-0.95,2.76-0.65,5.95-1.02,10.05c-2.38,0.35-5.78,1.25-9.18,1.26c-4.18,0.01-7.17-3.73-6.98-8.89
			c0.26-7.4,0.96-14.78,1.58-22.16c0.79-9.46,1.68-18.92,1.91-28.69c-0.59,0.94-1.19,1.87-1.77,2.81
			c-9.4,15.2-19.69,29.71-32.86,41.95c-7.02,6.52-14.54,12.31-24.17,14.5c-14.44,3.29-26.88-5.89-26.97-20.76
			c-0.05-8.2,1.66-16.42,2.77-24.61c1.38-10.17,3.24-20.27,4.34-30.47C644.44,474.98,643.33,470.95,642.85,466.35z M869.43,504.89
			c15.02-1.28,27.68-6.39,37.24-17.87c4.51-5.42,6.44-11.72,5.92-18.81c-0.52-7.04-4.41-10.36-11.42-9.56
			c-8.39,0.96-13.97,6.18-18.78,12.48C874.88,480.96,871.05,492.23,869.43,504.89z"/>
		<path class="st2" d="M42.54,404.43c3.53-1.08,8.07-2.84,12.76-3.8c5.66-1.16,8.45,2.44,7.28,8.85
			c-6.12,33.46-12.3,66.91-18.33,100.38c-1.11,6.18-1.77,12.46-2.34,18.72c-0.51,5.63,1.5,8.71,6.8,10.77
			c6.74,2.62,13.83,2.76,20.92,2.4c12.8-0.64,25.09-3.59,36.97-8.36c0.69-0.28,1.41-0.49,2.68-0.92
			c-2.58,7.92-5.27,14.85-13.8,17.62c-10.05,3.26-20.36,4.97-30.83,5.82c-8.81,0.71-17.65,1.47-26.42-0.57
			c-11.84-2.75-17.63-10.8-15.87-22.9c1.77-12.11,3.89-24.17,6.05-36.22c4.04-22.57,8.23-45.12,12.33-67.68
			c0.77-4.23,1.69-8.46,2.06-12.73C43.09,412.33,42.67,408.8,42.54,404.43z"/>
		<path class="st2" d="M691.36,410.63c-2.01,6.75-4.42,12.46-8.79,16.73c-5.91,5.76-12.44,10.89-18.78,16.21
			c-0.99,0.83-2.3,1.34-3.55,1.76c-3.67,1.23-5.56-0.07-5.7-3.92c-0.06-1.65-0.05-3.34,0.18-4.97c0.27-1.96,0.75-3.89,1.25-5.81
			c0.76-2.93,3.37-1.29,5.06-1.84c10.13-3.33,19.03-8.75,27.21-15.47C689.09,412.62,689.91,411.88,691.36,410.63z"/>
	</g>
</g>
</svg>
