<?xml version="1.0" encoding="utf-8"?>
<!-- Generator: Adobe Illustrator 27.0.0, SVG Export Plug-In . SVG Version: 6.00 Build 0)  -->
<svg version="1.1" id="Layer_1" xmlns="http://www.w3.org/2000/svg" xmlns:xlink="http://www.w3.org/1999/xlink" x="0px" y="0px"
	 viewBox="0 0 4000 1000" style="enable-background:new 0 0 4000 1000;" xml:space="preserve">
<style type="text/css">
	.st0{fill:#FFE189;}
</style>
<g id="Layer_3">
	<g>
		<path class="st0" d="M1505.26,631.4c-14.03,15.95-26.86,31.67-40.89,46.22c-29.38,30.46-62.37,55.03-105.46,62.97
			c-35.39,6.53-68.14-0.72-94.88-23.49c-21-17.84-37.76-40.68-56.2-61.53c-3.41-3.85-5.81-8.58-9.18-13.75
			c-41.69,62.13-72.95,127.51-86.78,200.7c-38.92-20.84-50.3-49.1-35.55-88.7c14.43-38.72,38.64-71.63,63.57-103.98
			c10.3-13.35,21.56-25.93,31.71-39.4c2.32-3.09,3.65-9.1,2.24-12.43c-13.07-30.94-26.86-61.57-41.09-93.76
			c-2.16,3.65-4.57,7.38-6.61,11.26c-28.7,54.67-58.68,108.75-99.57,155.28c-20.84,23.73-45.53,44.53-70.43,64.17
			c-17.12,13.47-38.36,18.92-61.09,18.84c-28.38-0.08-46.94-13.95-59.24-37.68c-14.23-27.38-17.96-57.4-18.96-87.62
			c-0.92-27.9-0.2-55.84-0.2-84.54c-1.88,3.61-3.97,7.42-5.85,11.34c-28.82,59.76-61.33,117.4-108.43,164.82
			c-17.84,18-38.52,34.67-60.77,46.46c-38.92,20.56-80.49,5.85-102.85-32.23c-17.12-29.14-18.88-61.21-13.43-92.95
			c12.87-74.48,28.26-148.51,41.65-222.9c2.41-13.43,0.36-27.7,0.36-42.93c16.96,0,36.68-1.16,56.16,0.4
			c14.43,1.16,22.29,15.11,18.68,31.35c-9.42,42.25-19.84,84.26-29.3,126.5c-9.46,42.33-19.8,84.62-17.68,128.59
			c0.16,3.53,0.16,7.14,0.76,10.62c5.25,29.9,26.33,42.21,53.47,28.46c15.47-7.82,29.94-19.24,42.17-31.71
			c37.6-38.36,64.33-84.54,90.39-131.03c23.85-42.53,47.18-85.46,59.48-133c3.89-14.99,3.97-30.98,6.17-49.54
			c14.63-5.41,33.99-9.3,54.03-6.89c16.47,1.96,22.49,11.62,19.16,28.1c-10.34,50.67-21.97,101.09-30.7,152.04
			c-6.65,38.92-8.06,78.48-1.8,117.89c0.08,0.44,0.08,0.88,0.16,1.32c6.93,34.75,27.94,46.98,58.68,29.74
			c20.8-11.7,40.24-27.86,56.24-45.7c46.9-52.19,79.89-113.72,111.71-175.73c1.96-3.85,1.72-9.38,1.04-13.91
			c-1.52-10.5-4.05-20.84-5.97-31.31c-3.17-17.36,2.53-31.35,18.44-38.8c15.39-7.21,31.87-12.23,49.54-18.8
			c-3.33,72.83,24.25,134.2,51.59,196.01c41.73-37.44,85.46-124.46,91.11-183.9c15.71,1.56,31.95,1.56,47.3,5.29
			c12.19,2.93,15.63,14.79,11.78,25.97c-5.89,17.04-10.9,35.47-21.24,49.66c-30.5,41.85-63.25,82.09-95.6,122.62
			c-15.87,19.88-18.12,12.31-2,34.59c12.11,16.75,25.93,32.83,41.49,46.38c27.58,24.01,60.13,27.62,93.27,12.95
			c15.99-7.09,31.83-16.43,44.73-28.1c19-17.12,35.55-37.04,52.79-56.12c11.46-12.67,17.56-27.66,21.81-44.57
			c15.23-60.93,48.02-111.11,98.53-148.95c37.72-28.22,80.69-40,127.47-37.08c64.98,4.05,101.49,60.97,80.73,125.06
			c-10.54,32.59-32.59,56.56-59.12,76.76c-49.94,38-106.62,56.84-169.11,58.84c-3.05,0.08-6.05,0-8.94,0
			c-5.53,44.45,10.98,105.54,73.19,107.66c22.81,0.76,46.86-4.05,68.66-11.3c47.62-15.83,85.9-47.3,122.09-81.05
			c54.67-50.95,98.36-110.55,136.24-174.64c1.96-3.33,4.01-6.65,6.21-10.3c5.69,2.85,10.7,5.33,17.96,8.98
			c3.25-41.89,23.33-80.85,8.46-125.42c18.24-5.33,37.84-12.15,58-16.63c17-3.77,29.82,10.62,26.78,28.7
			c-6.05,35.99-12.35,71.91-18.8,107.82c-13.75,76.56-27.9,153-41.29,229.64c-2.24,12.91-2.49,26.45-1.64,39.56
			c0.96,14.75,11.06,22.93,25.13,25.05c62.73,9.42,123.1,1,179.33-28.58c126.86-66.74,175.45-199.94,145.42-316.82
			c-21.28-82.81-80.29-128.51-162.14-141.61c-138.93-22.21-242.75,35.95-320.31,148.47c-2.45,3.53-4.89,7.01-8.5,12.19
			c-11.7-28.1-11.42-53.99,0-79.85c9.94-22.53,26.29-40,45.49-54.71c58.12-44.49,124.38-68.94,196.69-77.12
			c59.92-6.77,119.77-6.09,177.57,13.43c83.09,28.1,138.17,82.65,150.59,171.96c11.9,85.66-10.7,163.5-61.97,232.84
			c-60.65,82.09-143.86,131.23-239.38,161.9c-41.17,13.23-83.41,20.48-126.66,21.08c-10.58,0.16-21.44-0.6-31.71-2.93
			c-33.23-7.54-55.11-27.02-48.78-73.59c7.86-57.8,18.72-115.24,28.38-172.8c2.49-14.79,5.29-29.54,6.33-45.33
			c-2.41,3.65-4.89,7.26-7.18,10.98c-53.63,87.62-121.37,161.62-209.76,215.21c-41.45,25.13-85.86,41.29-135.24,42.65
			c-76.08,2.12-118.41-47.86-131.99-105.74C1509.11,657.37,1507.59,645.03,1505.26,631.4z M1585.31,571.31
			c73.47,0.08,142.3-46.34,163.46-92.59c9.26-20.2,13.31-41.17,8.1-63.29c-4.21-17.92-15.07-27.38-33.55-28.26
			c-21.85-1.04-41.17,6.37-57.4,20.32C1616.14,450.3,1594.85,507.26,1585.31,571.31z"/>
		<path class="st0" d="M2582.91,418.35c10.9-2.32,24.93-6.21,39.24-8.18c26.78-3.69,38.32,5.33,37.16,32.23
			c-1.28,29.54-4.97,59.08-9.34,88.34c-6.77,45.41-17.52,90.39-21.97,136c-4.65,47.46,23.45,64.69,65.7,42.37
			c16.27-8.62,31.71-19.84,45.29-32.27c69.5-63.61,121.41-140.81,167.43-222.22c3.49-6.17,1.8-16.39,0-24.13
			c-2.37-10.22-7.26-19.8-11.62-31.14c14.23-4.85,28.9-10.78,44.09-14.79c24.29-6.41,39.76,4.57,39.96,29.78
			c0.2,27.86-1.68,55.8-3.73,83.61c-2.89,39.72-6.73,79.37-7.42,119.97c2.12-4.53,4.25-9.1,6.33-13.63
			c29.5-64.09,60.13-127.63,103.9-183.5c13.83-17.68,29.86-34.11,47.14-48.46c11.54-9.58,26.33-16.51,40.85-20.96
			c28.34-8.74,52.71,1.8,68.38,27.18c13.59,21.97,20.12,46.62,21.48,71.87c2.89,53.59,3.37,107.26,5.93,160.85
			c1,20.68,3.25,41.61,8.02,61.73c5.97,25.29,23.45,32.71,45.01,18.52c15.23-10.02,29.58-23.17,40.36-37.84
			c20.48-27.74,38.48-57.4,56.68-86.74c4.01-6.45,5.01-14.95,6.73-22.65c13.91-62.45,45.45-114.08,95.32-154.04
			c38.68-30.98,83.37-44.25,132.68-41.41c64.01,3.73,100.57,58.52,82.01,122.05c-8.94,30.62-28.26,53.95-52.31,73.67
			c-51.19,41.93-110.35,62.69-176.25,65.02c-3.49,0.12-6.93,0.32-10.26,0.52c-11.38,62.17,31.99,113.84,91.31,107.7
			c19.56-2,39.32-7.05,57.72-14.07c43.77-16.71,79.81-45.61,113.84-77.12c55.2-51.07,99.33-110.87,137.41-175.33
			c1.8-3.05,3.57-6.09,5.45-9.06c0.44-0.68,1.24-1.12,2.61-2.28c9.18,5.53,18.56,11.18,28.06,16.92c-0.32,1.8-0.24,3.13-0.76,4.21
			c-51.39,103.62-121.89,191.16-217.69,257.1c-40.16,27.66-83.61,47.34-132.44,55.28c-80.69,13.11-144.78-31.06-159.21-111.39
			c-1-5.53-2.16-10.98-3.57-18c-12.39,16.67-22.77,33.27-35.79,47.46c-18.52,20.12-38.2,39.4-58.92,57.28
			c-13.95,11.98-31.71,18.12-50.59,17.28c-27.02-1.24-45.49-15.55-56.28-40c-13.11-29.74-16.63-61.57-18.2-93.39
			c-2.16-42.97-1.72-86.06-3.25-129.07c-0.68-19-2.2-38.12-5.57-56.8c-5.77-32.07-27.38-40.12-50.87-17.76
			c-17.8,16.96-34.87,36.04-47.22,57.12c-35.39,60.29-68.62,121.85-101.85,183.38c-10.26,19-19,39.04-26.05,59.44
			c-3.81,11.06-2.61,23.85-4.09,40.28c-9.54,1.4-23.17,5.01-36.8,5.05c-16.75,0.04-28.74-14.95-27.98-35.63
			c1.04-29.66,3.85-59.24,6.33-88.82c3.17-37.92,6.73-75.84,7.66-115c-2.36,3.77-4.77,7.5-7.09,11.26
			c-37.68,60.93-78.92,119.09-131.71,168.15c-28.14,26.13-58.28,49.34-96.88,58.12c-57.88,13.19-107.74-23.61-108.1-83.21
			c-0.2-32.87,6.65-65.82,11.1-98.65c5.53-40.76,12.99-81.25,17.4-122.13C2589.28,452.95,2584.83,436.79,2582.91,418.35z
			 M3491.12,572.84c60.21-5.13,110.95-25.61,149.27-71.63c18.08-21.73,25.81-46.98,23.73-75.4c-2.08-28.22-17.68-41.53-45.78-38.32
			c-33.63,3.85-56,24.77-75.28,50.02C3512.96,476.92,3497.61,522.09,3491.12,572.84z"/>
		<path class="st0" d="M176.66,170.16c14.15-4.33,32.35-11.38,51.15-15.23c22.69-4.65,33.87,9.78,29.18,35.47
			c-24.53,134.12-49.3,268.2-73.47,402.36c-4.45,24.77-7.09,49.94-9.38,75.04c-2.04,22.57,6.01,34.91,27.26,43.17
			c27.02,10.5,55.44,11.06,83.85,9.62c51.31-2.57,100.57-14.39,148.19-33.51c2.77-1.12,5.65-1.96,10.74-3.69
			c-10.34,31.75-21.12,59.52-55.32,70.63c-40.28,13.07-81.61,19.92-123.58,23.33c-35.31,2.85-70.75,5.89-105.9-2.28
			c-47.46-11.02-70.67-43.29-63.61-91.79c7.09-48.54,15.59-96.88,24.25-145.18c16.19-90.47,32.99-180.86,49.42-271.28
			c3.09-16.96,6.77-33.91,8.26-51.03C178.86,201.82,177.18,187.67,176.66,170.16z"/>
		<path class="st0" d="M2777.35,195.01c-8.06,27.06-17.72,49.94-35.23,67.06c-23.69,23.09-49.86,43.65-75.28,64.98
			c-3.97,3.33-9.22,5.37-14.23,7.05c-14.71,4.93-22.29-0.28-22.85-15.71c-0.24-6.61-0.2-13.39,0.72-19.92
			c1.08-7.86,3.01-15.59,5.01-23.29c3.05-11.74,13.51-5.17,20.28-7.38c40.6-13.35,76.28-35.07,109.07-62.01
			C2768.25,202.99,2771.54,200.02,2777.35,195.01z"/>
	</g>
</g>
</svg>
